<svg width="1200" height="750" viewBox="0 0 1200 750" fill="none" xmlns="http://www.w3.org/2000/svg">
  <rect width="1200" height="750" fill="#162024"/>
  <rect x="70" y="62" width="1060" height="626" rx="40" fill="#FAFAF8"/>
  <rect x="104" y="98" width="430" height="554" rx="32" fill="#EEF3F5"/>
  <text x="140" y="154" fill="#12181A" font-family="Arial, sans-serif" font-size="28" font-weight="700">Self-Service Laundry</text>
  <g>
    <rect x="144" y="206" width="150" height="186" rx="28" fill="#FFFFFF" stroke="#D5DEE2" stroke-width="3"/>
    <circle cx="219" cy="300" r="48" fill="#456170"/>
    <circle cx="219" cy="300" r="28" fill="#FAFAF8"/>
    <rect x="166" y="226" width="46" height="12" rx="6" fill="#0E6B5C"/>
    <rect x="236" y="226" width="30" height="12" rx="6" fill="#E8A33D"/>
  </g>
  <g>
    <rect x="334" y="206" width="150" height="186" rx="28" fill="#FFFFFF" stroke="#D5DEE2" stroke-width="3"/>
    <circle cx="409" cy="300" r="48" fill="#0E6B5C"/>
    <circle cx="409" cy="300" r="28" fill="#FAFAF8"/>
    <rect x="356" y="226" width="46" height="12" rx="6" fill="#0E6B5C"/>
    <rect x="426" y="226" width="30" height="12" rx="6" fill="#E8A33D"/>
  </g>
  <rect x="144" y="442" width="340" height="92" rx="24" fill="#162024"/>
  <text x="174" y="484" fill="#FAFAF8" font-family="Arial, sans-serif" font-size="22" font-weight="700">Machine 03 activated</text>
  <text x="174" y="514" fill="#FAFAF8" fill-opacity=".62" font-family="Arial, sans-serif" font-size="18">QR payment confirmed</text>
  <rect x="590" y="98" width="506" height="554" rx="32" fill="#FFFFFF" stroke="#E1E0D9"/>
  <text x="628" y="154" fill="#12181A" font-family="Arial, sans-serif" font-size="28" font-weight="700">Owner Dashboard</text>
  <rect x="628" y="194" width="198" height="118" rx="22" fill="#EEF7F4"/>
  <text x="658" y="238" fill="#0E6B5C" font-family="Arial, sans-serif" font-size="40" font-weight="700">3</text>
  <text x="658" y="274" fill="#4A5559" font-family="Arial, sans-serif" font-size="18">Active machines</text>
  <rect x="858" y="194" width="198" height="118" rx="22" fill="#FFF4DC"/>
  <text x="888" y="238" fill="#CB8A28" font-family="Arial, sans-serif" font-size="40" font-weight="700">$42</text>
  <text x="888" y="274" fill="#4A5559" font-family="Arial, sans-serif" font-size="18">Today revenue</text>
  <rect x="628" y="360" width="428" height="52" rx="16" fill="#FAFAF8" stroke="#E1E0D9"/>
  <rect x="628" y="438" width="428" height="52" rx="16" fill="#FAFAF8" stroke="#E1E0D9"/>
  <rect x="628" y="516" width="428" height="52" rx="16" fill="#FAFAF8" stroke="#E1E0D9"/>
  <text x="660" y="394" fill="#12181A" font-family="Arial, sans-serif" font-size="19" font-weight="700">Washer 01</text>
  <text x="660" y="472" fill="#12181A" font-family="Arial, sans-serif" font-size="19" font-weight="700">Washer 03</text>
  <text x="660" y="550" fill="#12181A" font-family="Arial, sans-serif" font-size="19" font-weight="700">Dryer 02</text>
  <rect x="924" y="374" width="84" height="24" rx="12" fill="#0E6B5C"/>
  <rect x="924" y="452" width="84" height="24" rx="12" fill="#E8A33D"/>
  <rect x="924" y="530" width="84" height="24" rx="12" fill="#456170"/>
</svg>
