<svg width="1200" height="750" viewBox="0 0 1200 750" fill="none" xmlns="http://www.w3.org/2000/svg">
  <rect width="1200" height="750" fill="#101719"/>
  <rect x="58" y="56" width="1084" height="638" rx="42" fill="#FAFAF8"/>
  <rect x="88" y="92" width="668" height="548" rx="30" fill="#FFFFFF" stroke="#E1E0D9"/>
  <rect x="118" y="124" width="608" height="82" rx="22" fill="#162024"/>
  <text x="148" y="174" fill="#FAFAF8" font-family="Arial, sans-serif" font-size="26" font-weight="700">Table 07 · QR Ordering</text>
  <rect x="118" y="238" width="178" height="168" rx="24" fill="#FFF4DC"/>
  <circle cx="207" cy="300" r="38" fill="#E8A33D"/>
  <text x="158" y="368" fill="#12181A" font-family="Arial, sans-serif" font-size="22" font-weight="700">Beef Loklak</text>
  <text x="158" y="392" fill="#4A5559" font-family="Arial, sans-serif" font-size="17">$4.50</text>
  <rect x="326" y="238" width="178" height="168" rx="24" fill="#EEF7F4"/>
  <circle cx="415" cy="300" r="38" fill="#0E6B5C"/>
  <text x="368" y="368" fill="#12181A" font-family="Arial, sans-serif" font-size="22" font-weight="700">Iced Coffee</text>
  <text x="368" y="392" fill="#4A5559" font-family="Arial, sans-serif" font-size="17">$1.75</text>
  <rect x="534" y="238" width="178" height="168" rx="24" fill="#EEF3F5"/>
  <circle cx="623" cy="300" r="38" fill="#456170"/>
  <text x="576" y="368" fill="#12181A" font-family="Arial, sans-serif" font-size="22" font-weight="700">Fried Rice</text>
  <text x="576" y="392" fill="#4A5559" font-family="Arial, sans-serif" font-size="17">$3.25</text>
  <rect x="118" y="448" width="608" height="138" rx="24" fill="#162024"/>
  <text x="148" y="494" fill="#FAFAF8" font-family="Arial, sans-serif" font-size="24" font-weight="700">Kitchen Queue</text>
  <rect x="148" y="520" width="156" height="34" rx="10" fill="#E8A33D"/>
  <rect x="324" y="520" width="128" height="34" rx="10" fill="#FAFAF8" fill-opacity=".14"/>
  <rect x="472" y="520" width="196" height="34" rx="10" fill="#0E6B5C"/>
  <rect x="794" y="124" width="278" height="516" rx="38" fill="#12181A"/>
  <rect x="818" y="154" width="230" height="456" rx="28" fill="#FAFAF8"/>
  <text x="848" y="204" fill="#12181A" font-family="Arial, sans-serif" font-size="25" font-weight="700">ABA KHQR</text>
  <rect x="858" y="232" width="150" height="150" rx="18" fill="#FFFFFF" stroke="#12181A" stroke-width="8"/>
  <path d="M882 260H920V298H882V260ZM946 260H984V298H946V260ZM882 324H920V362H882V324ZM946 324H984V362H946V324Z" fill="#12181A"/>
  <rect x="848" y="424" width="170" height="42" rx="21" fill="#0E6B5C"/>
  <text x="884" y="452" fill="#FAFAF8" font-family="Arial, sans-serif" font-size="18" font-weight="700">Paid</text>
  <text x="848" y="514" fill="#4A5559" font-family="Arial, sans-serif" font-size="18">Order #142 confirmed</text>
</svg>
