<svg width="1200" height="750" viewBox="0 0 1200 750" fill="none" xmlns="http://www.w3.org/2000/svg">
  <rect width="1200" height="750" fill="#EEF5F1"/>
  <rect x="70" y="58" width="1060" height="634" rx="38" fill="#FFFFFF" stroke="#D9E3DE"/>
  <rect x="104" y="94" width="258" height="562" rx="28" fill="#162024"/>
  <text x="136" y="146" fill="#FAFAF8" font-family="Arial, sans-serif" font-size="26" font-weight="700">Rental Manager</text>
  <rect x="136" y="188" width="190" height="42" rx="14" fill="#E8A33D"/>
  <rect x="136" y="254" width="158" height="30" rx="10" fill="#FAFAF8" fill-opacity=".16"/>
  <rect x="136" y="306" width="182" height="30" rx="10" fill="#FAFAF8" fill-opacity=".12"/>
  <rect x="136" y="358" width="132" height="30" rx="10" fill="#FAFAF8" fill-opacity=".12"/>
  <rect x="404" y="104" width="308" height="148" rx="24" fill="#FFF8EA" stroke="#E8A33D" stroke-width="2"/>
  <text x="436" y="154" fill="#12181A" font-family="Arial, sans-serif" font-size="22" font-weight="700">Monthly Revenue</text>
  <text x="436" y="210" fill="#CB8A28" font-family="Arial, sans-serif" font-size="48" font-weight="700">$5,420</text>
  <rect x="744" y="104" width="308" height="148" rx="24" fill="#EEF7F4" stroke="#0E6B5C" stroke-width="2"/>
  <text x="776" y="154" fill="#12181A" font-family="Arial, sans-serif" font-size="22" font-weight="700">Invoices Sent</text>
  <text x="776" y="210" fill="#0E6B5C" font-family="Arial, sans-serif" font-size="48" font-weight="700">30 / 30</text>
  <rect x="404" y="292" width="648" height="332" rx="26" fill="#FAFAF8" stroke="#E1E0D9"/>
  <text x="438" y="346" fill="#12181A" font-family="Arial, sans-serif" font-size="24" font-weight="700">July Billing</text>
  <rect x="438" y="382" width="580" height="54" rx="14" fill="#FFFFFF" stroke="#E1E0D9"/>
  <rect x="438" y="456" width="580" height="54" rx="14" fill="#FFFFFF" stroke="#E1E0D9"/>
  <rect x="438" y="530" width="580" height="54" rx="14" fill="#FFFFFF" stroke="#E1E0D9"/>
  <text x="466" y="416" fill="#12181A" font-family="Arial, sans-serif" font-size="19" font-weight="700">Room 4B</text>
  <text x="466" y="490" fill="#12181A" font-family="Arial, sans-serif" font-size="19" font-weight="700">Room 7A</text>
  <text x="466" y="564" fill="#12181A" font-family="Arial, sans-serif" font-size="19" font-weight="700">Room 9C</text>
  <text x="742" y="416" fill="#4A5559" font-family="Arial, sans-serif" font-size="18">Water + Electric</text>
  <text x="742" y="490" fill="#4A5559" font-family="Arial, sans-serif" font-size="18">Rent + Electric</text>
  <text x="742" y="564" fill="#4A5559" font-family="Arial, sans-serif" font-size="18">Rent + Water</text>
  <rect x="928" y="394" width="62" height="30" rx="15" fill="#0E6B5C"/>
  <rect x="928" y="468" width="62" height="30" rx="15" fill="#E8A33D"/>
  <rect x="928" y="542" width="62" height="30" rx="15" fill="#0E6B5C"/>
</svg>
